<svg xmlns="http://www.w3.org/2000/svg" width="41.153" height="41.153" viewBox="0 0 41.153 41.153">
  <g id="Group_36" data-name="Group 36" transform="translate(-97.877 -27.873)">
    <path id="Path_748" data-name="Path 748" d="M119.362,50.722v7.349l2.69-2.69,1.285,1.285-4.884,4.885-4.885-4.885,1.285-1.285,2.691,2.69V50.722ZM118.453,34.4a1.574,1.574,0,0,1,1.572,1.572h1.818a3.394,3.394,0,0,0-2.482-3.263v-.849a.909.909,0,0,0-.909-.909h0a.909.909,0,0,0-.909.909v.825a3.03,3.03,0,0,0-2.482,3c0,1.748,1.547,2.7,2.913,3.547,1.054.651,2.05,1.266,2.05,2,0,.945-.847,1.28-1.572,1.28a1.574,1.574,0,0,1-1.572-1.572h-1.818a3.394,3.394,0,0,0,2.482,3.263v1.011a.909.909,0,0,0,.909.909h0a.909.909,0,0,0,.909-.909V44.22a3.031,3.031,0,0,0,2.482-3c0-1.748-1.547-2.7-2.912-3.546-1.055-.651-2.051-1.266-2.051-2,0-.945.847-1.28,1.572-1.28Zm0,14.507a10.466,10.466,0,1,1,7.388-3.065A10.452,10.452,0,0,1,118.453,48.9Zm8.635-10.453a8.645,8.645,0,1,0-2.532,6.1,8.635,8.635,0,0,0,2.532-6.1ZM138,56.63h-5v1.818h4.09v8.635H99.82V58.448h4.09V56.63h-5a.909.909,0,0,0-.909.909V67.992a.909.909,0,0,0,.909.909H138a.909.909,0,0,0,.909-.909V57.539A.909.909,0,0,0,138,56.63Z" transform="translate(0 0)" fill="#039244" stroke="#f5f8f9" stroke-width="0.25"/>
  </g>
</svg>
