<svg xmlns="http://www.w3.org/2000/svg" width="36.875" height="40.807" viewBox="0 0 36.875 40.807">
  <g id="Group_35" data-name="Group 35" transform="translate(-164.186 -74.366)">
    <path id="Path_746" data-name="Path 746" d="M182.623,115.173l-.155-.023a19.163,19.163,0,0,1-11.93-6.379,25.367,25.367,0,0,1-5.19-10.641,43.711,43.711,0,0,1-1.161-9.857,40.182,40.182,0,0,1,.189-4.4l.089-.756.756-.117c11.7-1.733,16.575-7.612,16.625-7.673l.778-.967.773.967a18,18,0,0,0,3.9,3.184,32.634,32.634,0,0,0,12.724,4.5l.761.117.089.756a37.368,37.368,0,0,1,.195,4.4,44.063,44.063,0,0,1-1.167,9.857,25.361,25.361,0,0,1-5.184,10.635,19.179,19.179,0,0,1-11.936,6.379ZM166.3,84.867c-.055.722-.117,1.934-.111,3.451A41.656,41.656,0,0,0,167.3,97.7c2.217,8.962,7.368,14.158,15.319,15.452,7.951-1.289,13.1-6.49,15.314-15.452a41.618,41.618,0,0,0,1.111-9.385c.017-1.511-.05-2.723-.105-3.451a37.721,37.721,0,0,1-7.279-1.956,30.52,30.52,0,0,1-5.54-2.767,22.035,22.035,0,0,1-3.5-2.734,22.491,22.491,0,0,1-3.506,2.728,30,30,0,0,1-5.54,2.773,37.844,37.844,0,0,1-7.279,1.956Z" transform="translate(0)" fill="#039244"/>
    <path id="Path_747" data-name="Path 747" d="M307.043,205.366v-2.445a7,7,0,0,1-3.7-1.061l.578-1.617a6.47,6.47,0,0,0,3.478,1.039c1.717,0,2.873-.995,2.873-2.367,0-1.328-.939-2.15-2.728-2.878-2.462-.967-3.984-2.078-3.984-4.179a3.964,3.964,0,0,1,3.651-3.889v-2.44h1.5v2.339a6.513,6.513,0,0,1,3.14.845l-.606,1.595a5.853,5.853,0,0,0-3.045-.822c-1.862,0-2.562,1.111-2.562,2.078,0,1.256.895,1.884,2.995,2.756,2.49,1.017,3.745,2.272,3.745,4.423a4.2,4.2,0,0,1-3.817,4.112v2.512Z" transform="translate(-125.354 -100.133)" fill="#039244"/>
  </g>
</svg>
