<svg xmlns="http://www.w3.org/2000/svg" xmlns:xlink="http://www.w3.org/1999/xlink" width="67" height="62" viewBox="0 0 67 62">
  <defs>
    <clipPath id="clip-path">
      <rect width="67" height="62" fill="none"/>
    </clipPath>
  </defs>
  <g id="Repeat_Grid_2" data-name="Repeat Grid 2" clip-path="url(#clip-path)">
    <g transform="translate(-915 -2087)">
      <circle id="Ellipse_1" data-name="Ellipse 1" cx="2.5" cy="2.5" r="2.5" transform="translate(915 2087)" fill="#ffbc00"/>
    </g>
    <g transform="translate(-904 -2087)">
      <circle id="Ellipse_1-2" data-name="Ellipse 1" cx="2.5" cy="2.5" r="2.5" transform="translate(915 2087)" fill="#ffbc00"/>
    </g>
    <g transform="translate(-893 -2087)">
      <circle id="Ellipse_1-3" data-name="Ellipse 1" cx="2.5" cy="2.5" r="2.5" transform="translate(915 2087)" fill="#ffbc00"/>
    </g>
    <g transform="translate(-882 -2087)">
      <circle id="Ellipse_1-4" data-name="Ellipse 1" cx="2.5" cy="2.5" r="2.5" transform="translate(915 2087)" fill="#ffbc00"/>
    </g>
    <g transform="translate(-871 -2087)">
      <circle id="Ellipse_1-5" data-name="Ellipse 1" cx="2.5" cy="2.5" r="2.5" transform="translate(915 2087)" fill="#ffbc00"/>
    </g>
    <g transform="translate(-860 -2087)">
      <circle id="Ellipse_1-6" data-name="Ellipse 1" cx="2.5" cy="2.5" r="2.5" transform="translate(915 2087)" fill="#ffbc00"/>
    </g>
    <g transform="translate(-849 -2087)">
      <circle id="Ellipse_1-7" data-name="Ellipse 1" cx="2.5" cy="2.5" r="2.5" transform="translate(915 2087)" fill="#ffbc00"/>
    </g>
    <g transform="translate(-915 -2075)">
      <circle id="Ellipse_1-8" data-name="Ellipse 1" cx="2.5" cy="2.5" r="2.5" transform="translate(915 2087)" fill="#ffbc00"/>
    </g>
    <g transform="translate(-904 -2075)">
      <circle id="Ellipse_1-9" data-name="Ellipse 1" cx="2.5" cy="2.5" r="2.5" transform="translate(915 2087)" fill="#ffbc00"/>
    </g>
    <g transform="translate(-893 -2075)">
      <circle id="Ellipse_1-10" data-name="Ellipse 1" cx="2.5" cy="2.5" r="2.5" transform="translate(915 2087)" fill="#ffbc00"/>
    </g>
    <g transform="translate(-882 -2075)">
      <circle id="Ellipse_1-11" data-name="Ellipse 1" cx="2.5" cy="2.5" r="2.5" transform="translate(915 2087)" fill="#ffbc00"/>
    </g>
    <g transform="translate(-871 -2075)">
      <circle id="Ellipse_1-12" data-name="Ellipse 1" cx="2.5" cy="2.5" r="2.5" transform="translate(915 2087)" fill="#ffbc00"/>
    </g>
    <g transform="translate(-860 -2075)">
      <circle id="Ellipse_1-13" data-name="Ellipse 1" cx="2.5" cy="2.5" r="2.5" transform="translate(915 2087)" fill="#ffbc00"/>
    </g>
    <g transform="translate(-849 -2075)">
      <circle id="Ellipse_1-14" data-name="Ellipse 1" cx="2.5" cy="2.5" r="2.5" transform="translate(915 2087)" fill="#ffbc00"/>
    </g>
    <g transform="translate(-915 -2063)">
      <circle id="Ellipse_1-15" data-name="Ellipse 1" cx="2.5" cy="2.5" r="2.5" transform="translate(915 2087)" fill="#ffbc00"/>
    </g>
    <g transform="translate(-904 -2063)">
      <circle id="Ellipse_1-16" data-name="Ellipse 1" cx="2.5" cy="2.5" r="2.5" transform="translate(915 2087)" fill="#ffbc00"/>
    </g>
    <g transform="translate(-893 -2063)">
      <circle id="Ellipse_1-17" data-name="Ellipse 1" cx="2.5" cy="2.5" r="2.5" transform="translate(915 2087)" fill="#ffbc00"/>
    </g>
    <g transform="translate(-882 -2063)">
      <circle id="Ellipse_1-18" data-name="Ellipse 1" cx="2.5" cy="2.5" r="2.5" transform="translate(915 2087)" fill="#ffbc00"/>
    </g>
    <g transform="translate(-871 -2063)">
      <circle id="Ellipse_1-19" data-name="Ellipse 1" cx="2.5" cy="2.5" r="2.5" transform="translate(915 2087)" fill="#ffbc00"/>
    </g>
    <g transform="translate(-860 -2063)">
      <circle id="Ellipse_1-20" data-name="Ellipse 1" cx="2.5" cy="2.5" r="2.5" transform="translate(915 2087)" fill="#ffbc00"/>
    </g>
    <g transform="translate(-849 -2063)">
      <circle id="Ellipse_1-21" data-name="Ellipse 1" cx="2.5" cy="2.5" r="2.5" transform="translate(915 2087)" fill="#ffbc00"/>
    </g>
    <g transform="translate(-915 -2051)">
      <circle id="Ellipse_1-22" data-name="Ellipse 1" cx="2.5" cy="2.5" r="2.5" transform="translate(915 2087)" fill="#ffbc00"/>
    </g>
    <g transform="translate(-904 -2051)">
      <circle id="Ellipse_1-23" data-name="Ellipse 1" cx="2.5" cy="2.5" r="2.5" transform="translate(915 2087)" fill="#ffbc00"/>
    </g>
    <g transform="translate(-893 -2051)">
      <circle id="Ellipse_1-24" data-name="Ellipse 1" cx="2.5" cy="2.5" r="2.5" transform="translate(915 2087)" fill="#ffbc00"/>
    </g>
    <g transform="translate(-882 -2051)">
      <circle id="Ellipse_1-25" data-name="Ellipse 1" cx="2.5" cy="2.5" r="2.5" transform="translate(915 2087)" fill="#ffbc00"/>
    </g>
    <g transform="translate(-871 -2051)">
      <circle id="Ellipse_1-26" data-name="Ellipse 1" cx="2.5" cy="2.5" r="2.5" transform="translate(915 2087)" fill="#ffbc00"/>
    </g>
    <g transform="translate(-860 -2051)">
      <circle id="Ellipse_1-27" data-name="Ellipse 1" cx="2.5" cy="2.5" r="2.5" transform="translate(915 2087)" fill="#ffbc00"/>
    </g>
    <g transform="translate(-849 -2051)">
      <circle id="Ellipse_1-28" data-name="Ellipse 1" cx="2.5" cy="2.5" r="2.5" transform="translate(915 2087)" fill="#ffbc00"/>
    </g>
    <g transform="translate(-915 -2039)">
      <circle id="Ellipse_1-29" data-name="Ellipse 1" cx="2.5" cy="2.5" r="2.5" transform="translate(915 2087)" fill="#ffbc00"/>
    </g>
    <g transform="translate(-904 -2039)">
      <circle id="Ellipse_1-30" data-name="Ellipse 1" cx="2.5" cy="2.5" r="2.5" transform="translate(915 2087)" fill="#ffbc00"/>
    </g>
    <g transform="translate(-893 -2039)">
      <circle id="Ellipse_1-31" data-name="Ellipse 1" cx="2.5" cy="2.5" r="2.5" transform="translate(915 2087)" fill="#ffbc00"/>
    </g>
    <g transform="translate(-882 -2039)">
      <circle id="Ellipse_1-32" data-name="Ellipse 1" cx="2.5" cy="2.5" r="2.5" transform="translate(915 2087)" fill="#ffbc00"/>
    </g>
    <g transform="translate(-871 -2039)">
      <circle id="Ellipse_1-33" data-name="Ellipse 1" cx="2.5" cy="2.5" r="2.5" transform="translate(915 2087)" fill="#ffbc00"/>
    </g>
    <g transform="translate(-860 -2039)">
      <circle id="Ellipse_1-34" data-name="Ellipse 1" cx="2.5" cy="2.5" r="2.5" transform="translate(915 2087)" fill="#ffbc00"/>
    </g>
    <g transform="translate(-849 -2039)">
      <circle id="Ellipse_1-35" data-name="Ellipse 1" cx="2.5" cy="2.5" r="2.5" transform="translate(915 2087)" fill="#ffbc00"/>
    </g>
    <g transform="translate(-915 -2027)">
      <circle id="Ellipse_1-36" data-name="Ellipse 1" cx="2.5" cy="2.5" r="2.5" transform="translate(915 2087)" fill="#ffbc00"/>
    </g>
    <g transform="translate(-904 -2027)">
      <circle id="Ellipse_1-37" data-name="Ellipse 1" cx="2.5" cy="2.5" r="2.5" transform="translate(915 2087)" fill="#ffbc00"/>
    </g>
    <g transform="translate(-893 -2027)">
      <circle id="Ellipse_1-38" data-name="Ellipse 1" cx="2.5" cy="2.5" r="2.5" transform="translate(915 2087)" fill="#ffbc00"/>
    </g>
    <g transform="translate(-882 -2027)">
      <circle id="Ellipse_1-39" data-name="Ellipse 1" cx="2.5" cy="2.5" r="2.5" transform="translate(915 2087)" fill="#ffbc00"/>
    </g>
    <g transform="translate(-871 -2027)">
      <circle id="Ellipse_1-40" data-name="Ellipse 1" cx="2.5" cy="2.5" r="2.5" transform="translate(915 2087)" fill="#ffbc00"/>
    </g>
    <g transform="translate(-860 -2027)">
      <circle id="Ellipse_1-41" data-name="Ellipse 1" cx="2.5" cy="2.5" r="2.5" transform="translate(915 2087)" fill="#ffbc00"/>
    </g>
    <g transform="translate(-849 -2027)">
      <circle id="Ellipse_1-42" data-name="Ellipse 1" cx="2.5" cy="2.5" r="2.5" transform="translate(915 2087)" fill="#ffbc00"/>
    </g>
  </g>
</svg>
